# xmcd CD database file
#
# Track frame offsets:
#	150
#	16438
#	41138
#	59139
#	86069
#	117487
#	153954
#	175812
#	214565
#	237129
#	260281
#	288891
#
# Disc length: 4275 seconds
#
# Revision: 0
# Processed by: cddbd v1.5.2PL0 Copyright (c) Steve Scherf et al.
# Submitted via: CDex 1.70beta2
#
DISCID=a510b10c
DTITLE=Wayne Kelly Trio - In My Quiet Hour
DYEAR=2006
DGENRE=Jazz
TTITLE0=1st of Feb 2004 3.35am
TTITLE1=Mr Hank Jones
TTITLE2=What's the Number
TTITLE3=Mt Conder
TTITLE4=Tired Lazy
TTITLE5=Alone
TTITLE6=Dr Kirkland Blues
TTITLE7=King of Kings
TTITLE8=On the Bus
TTITLE9=In My Quiet Hour
TTITLE10=For the Time Being
TTITLE11=Family
EXTD=YEAR: 2006
EXTT0=
EXTT1=
EXTT2=
EXTT3=
EXTT4=
EXTT5=
EXTT6=
EXTT7=
EXTT8=
EXTT9=
EXTT10=
EXTT11=
PLAYORDER=
